<svg xmlns="http://www.w3.org/2000/svg" viewBox="0 0 51.57 56.68"><defs><style>.cls-1{fill:#676767;}</style></defs><g id="Layer_2" data-name="Layer 2"><g id="Layer_1-2" data-name="Layer 1"><path class="cls-1" d="M50.49,18.47,27.5.59a2.78,2.78,0,0,0-3.43,0l-23,17.88A2.8,2.8,0,0,0,0,20.68V48.77a7.92,7.92,0,0,0,7.91,7.91H43.66a7.92,7.92,0,0,0,7.91-7.91V20.68A2.8,2.8,0,0,0,50.49,18.47ZM30.65,51.08H20.92V31.14h9.73ZM46,48.77a2.31,2.31,0,0,1-2.31,2.31H36.25V28.34a2.8,2.8,0,0,0-2.8-2.8H18.12a2.8,2.8,0,0,0-2.8,2.8V51.08H7.91A2.3,2.3,0,0,1,5.6,48.77V22L25.78,6.35,46,22Z"/></g></g></svg>