<svg xmlns="http://www.w3.org/2000/svg" xmlns:xlink="http://www.w3.org/1999/xlink" viewBox="0 0 81.75 73.12"><defs><style>.cls-1{fill:none;}.cls-2{clip-path:url(#clip-path);}.cls-3{fill:#676767;}</style><clipPath id="clip-path" transform="translate(0 -3.82)"><rect class="cls-1" width="87.19" height="80.76"/></clipPath></defs><g id="Layer_2" data-name="Layer 2"><g id="Layer_1-2" data-name="Layer 1"><g class="cls-2"><g id="Mask_Group_2" data-name="Mask Group 2"><g id="recurring-subscription"><path id="Path_9" data-name="Path 9" class="cls-3" d="M76.83,47.18A36.58,36.58,0,0,1,5.5,49.59l4.57-1.18A31.82,31.82,0,0,0,72,47.18H67.13l7.31-8.91,7.31,8.91Zm-36,2.58V41.41A12.71,12.71,0,0,1,34.32,38a7.87,7.87,0,0,1-2.06-5.5,7.27,7.27,0,0,1,2.33-5.49,9.85,9.85,0,0,1,6.17-2.56v-2h3.29v2a10.49,10.49,0,0,1,5.75,2.17,8.09,8.09,0,0,1,2.72,4.78l-5.74.65a4.23,4.23,0,0,0-2.73-3.19v7.79a15.34,15.34,0,0,1,7.42,3.36,7.34,7.34,0,0,1,2,5.29A8.25,8.25,0,0,1,51,51.42a11.71,11.71,0,0,1-6.92,3.08v3.72H40.78V54.54A11.07,11.07,0,0,1,34.45,52a10,10,0,0,1-3.1-6l5.88-.61a6.21,6.21,0,0,0,1.36,2.74,5.87,5.87,0,0,0,2.21,1.67Zm0-20.94a4.31,4.31,0,0,0-2.1,1.38,3.26,3.26,0,0,0-.77,2.11,3,3,0,0,0,.71,2,4.76,4.76,0,0,0,2.17,1.46V28.82ZM44.06,50.1a5.15,5.15,0,0,0,2.77-1.43,3.61,3.61,0,0,0,1.08-2.61A3.21,3.21,0,0,0,47,43.77a5.81,5.81,0,0,0-2.94-1.48V50.1ZM5,33.58a36.58,36.58,0,0,1,70.57-4.94l-2.24.76-2.23.76c-.07-.19-.13-.37-.2-.55a31.82,31.82,0,0,0-61.08,4h4.85L7.31,42.49,0,33.58Z" transform="translate(0 -3.82)"/></g></g></g></g></g></svg>