<svg xmlns="http://www.w3.org/2000/svg" viewBox="0 0 91.57 77.34"><defs><style>.cls-1{fill:#676767;}</style></defs><g id="Layer_2" data-name="Layer 2"><g id="Layer_1-2" data-name="Layer 1"><g id="deal"><path id="Path_28" data-name="Path 28" class="cls-1" d="M91.22,29.09,74.94,1.33a2.68,2.68,0,0,0-3.66-1L61.53,6,52.74,2.76a8.83,8.83,0,0,0-1-.3,9.78,9.78,0,0,0-7.33,1L29.88,11.84A6.71,6.71,0,0,0,36.51,23.5l.08,0,15.94-9.21a5.35,5.35,0,0,1,5.36,0L90.11,32.86l.5-.39A2.69,2.69,0,0,0,91.22,29.09Z"/><path id="Path_29" data-name="Path 29" class="cls-1" d="M87.14,37.37,55.24,18.94,39.3,28.15a12,12,0,0,1-9.15,1.2,12.07,12.07,0,0,1-4.3-21.18l-6.6-3.81a2.68,2.68,0,0,0-3.66,1l0,.07L.32,33.8a2.68,2.68,0,0,0,1,3.59l1.39.81L5.18,34A11.42,11.42,0,0,1,20.79,29.8a11.21,11.21,0,0,1,2.62,2.09A11.39,11.39,0,0,1,38,38.66c.12.33.22.66.31,1s.16.65.22,1A11.42,11.42,0,0,1,47,48.82a9.58,9.58,0,0,1,.22,1,11.42,11.42,0,0,1,8.5,13.71,11.72,11.72,0,0,1-1.22,3.08l-3.34,5.8,7.16,4.13a6,6,0,1,0,6-10.45h0L69,68.76a6,6,0,1,0,6-10.46l3.1,1.79a6,6,0,0,0,6-10.46l-3.1-1.78a6,6,0,0,0,6-10.46Z"/><path id="Path_30" data-name="Path 30" class="cls-1" d="M47.66,55.65a6,6,0,0,0-8.25,2.21h0l1.79-3.1a6,6,0,0,0-10.46-6l1.79-3.1a6,6,0,0,0-10.46-6h0l-1.79,3.1a6,6,0,0,0-10.46-6L3.35,47.89a6,6,0,0,0,10.46,6,6,6,0,1,0,10.46,6h0a6,6,0,0,0,10.45,6,6,6,0,1,0,10.46,6l4.7-8.13a6,6,0,0,0-2.21-8.25h0Z"/></g></g></g></svg>