<svg xmlns="http://www.w3.org/2000/svg" viewBox="0 0 65.95 64.14"><defs><style>.cls-1{fill:#676767;}</style></defs><g id="Layer_2" data-name="Layer 2"><g id="Layer_1-2" data-name="Layer 1"><path id="Icon_ionic-ios-settings" data-name="Icon ionic-ios-settings" class="cls-1" d="M60.51,32.05A8.25,8.25,0,0,1,66,24.36a32,32,0,0,0-4.07-9.55,8.71,8.71,0,0,1-3.45.72,8.59,8.59,0,0,1-6-2.4A8.09,8.09,0,0,1,50.68,4,33.94,33.94,0,0,0,40.9,0,8.57,8.57,0,0,1,29.7,4.64,8.58,8.58,0,0,1,25.06,0a34.14,34.14,0,0,0-9.81,4,8,8,0,0,1-1.75,9.18,8.64,8.64,0,0,1-9.44,1.67A33,33,0,0,0,0,24.37,8.18,8.18,0,0,1,5,34.8a8.19,8.19,0,0,1-5,5,32.06,32.06,0,0,0,4.07,9.53,8.7,8.7,0,0,1,3.45-.68,8.59,8.59,0,0,1,6,2.4,8.1,8.1,0,0,1,1.76,9.17,34.37,34.37,0,0,0,9.8,4,8.55,8.55,0,0,1,15.8,0,34.14,34.14,0,0,0,9.81-4A8.06,8.06,0,0,1,52.44,51a8.53,8.53,0,0,1,6-2.41,8.67,8.67,0,0,1,3.44.7,32.55,32.55,0,0,0,4.07-9.53A8.31,8.31,0,0,1,60.51,32.05ZM33.13,45.37A13.36,13.36,0,1,1,46.87,32,13.55,13.55,0,0,1,33.14,45.37Z"/></g></g></svg>