<svg xmlns="http://www.w3.org/2000/svg" viewBox="0 0 66.58 58.26"><defs><style>.cls-1{fill:#676767;}</style></defs><g id="Layer_2" data-name="Layer 2"><g id="Layer_1-2" data-name="Layer 1"><path id="Icon_awesome-wallet" data-name="Icon awesome-wallet" class="cls-1" d="M60,12.49H10.4a2.08,2.08,0,0,1-.19-4.16H60.34a2.08,2.08,0,0,0,2.08-2.08A6.24,6.24,0,0,0,56.19,0H8.32A8.33,8.33,0,0,0,0,8.32V49.94a8.33,8.33,0,0,0,8.32,8.32H60A6.44,6.44,0,0,0,66.58,52V18.73A6.42,6.42,0,0,0,60,12.49ZM54.1,39.54a4.16,4.16,0,1,1,4.16-4.16,4.16,4.16,0,0,1-4.16,4.16Z"/></g></g></svg>